#!OML:ASF F:\VICON\USERDATA\INSTALL\Justin_Nancy\Justin_Nancy.ASF
:FULLY-SPECIFIED
:DEGREES
1
root 0.950781 17.4696 -31.3959 3.95979 -1.4915 1.21593
lowerback 1.56141 -3.24162 -4.92351
upperback -2.90988 -4.37093 4.59994
thorax -3.16922 -1.99921 7.74831
lowerneck -6.88543 -0.91025 -14.0528
upperneck 21.1424 -0.392977 5.74195
head 7.69631 -0.782675 4.22978
rclavicle 2.83082e-014 -7.95139e-015
rhumerus -34.4266 -0.095542 -81.4145
rradius 27.7692
rwrist 7.65398
rhand -13.6921 0.185167
rfingers 7.12502
rthumb 12.426 -29.4255
lclavicle 2.83082e-014 -7.95139e-015
lhumerus -33.8941 13.2328 89.3621
lradius 24.088
lwrist -13.5595
lhand -10.3129 27.3459
lfingers 7.12502
lthumb 15.6824 56.7304
rfemur -13.0965 4.63232 22.7707
rtibia 31.6165
rfoot -18.1703 -10.0308
rtoes 7.25182
lfemur -13.7146 -4.31329 -22.3938
ltibia 31.1018
lfoot -17.8099 4.63949
ltoes 1.25665
2
root 0.948744 17.4682 -31.3926 3.98874 -1.69225 1.15618
lowerback 1.6863 -3.58923 -5.39374
upperback -3.22376 -4.84562 5.11224
thorax -3.41176 -2.20078 8.60517
lowerneck -6.11111 -0.394977 -14.5761
upperneck 20.9447 0.3164 5.50584
head 7.42398 -0.507222 4.28276
rclavicle 3.55328e-015 3.18055e-015
rhumerus -34.8427 1.51685 -81.3463
rradius 27.485
rwrist 8.29331
rhand -14.1426 1.67624
rfingers 7.12502
rthumb 11.9916 -27.9602
lclavicle 3.55328e-015 3.18055e-015
lhumerus -34.8141 14.7484 89.2177
lradius 24.3871
lwrist -13.5562
lhand -10.3558 27.2962
lfingers 7.12502
lthumb 15.641 56.6839
rfemur -13.1356 4.74093 22.8135
rtibia 31.566
rfoot -18.1247 -9.94025
rtoes 8.01257
lfemur -13.7555 -4.35776 -22.3616
ltibia 31.1567
lfoot -17.8349 4.97112
ltoes 1.29525
3
root 0.948379 17.4701 -31.3904 4.0309 -1.69025 1.1893
lowerback 1.67178 -3.57576 -5.37952
upperback -3.22309 -4.82697 5.09031
thorax -3.40913 -2.19216 8.57173
lowerneck -6.14682 -0.409096 -14.4806
upperneck 21.0224 0.307458 5.41512
head 7.45791 -0.514705 4.23772
rclavicle 5.07149e-014 -1.11319e-014
rhumerus -34.855 1.46477 -81.3185
rradius 27.3559
rwrist 8.62933
rhand -14.9742 5.396
rfingers 7.12502
rthumb 11.1896 -24.2856
lclavicle 5.07149e-014 -1.11319e-014
lhumerus -34.7455 14.7042 89.2267
lradius 24.3918
lwrist -13.5228
lhand -10.3261 27.4229
lfingers 7.12502
lthumb 15.6696 56.8084
rfemur -13.2108 4.68965 22.7798
rtibia 31.6158
rfoot -18.1999 -9.94387
rtoes 8.22016
lfemur -13.7837 -4.32099 -22.398
ltibia 31.0948
lfoot -17.858 5.01141
ltoes 1.48347
4
root 0.945636 17.4703 -31.3864 4.03462 -1.6606 1.34625
lowerback 1.6468 -3.49015 -5.42861
upperback -3.17447 -4.71693 4.94363
thorax -3.37236 -2.14001 8.43517
lowerneck -6.22016 -0.52295 -14.2457
upperneck 21.0523 0.14851 5.32254
head 7.49744 -0.580888 4.15653
rclavicle 7.65321e-015 -9.54166e-015
rhumerus -35.0168 1.33135 -81.3773
rradius 27.6501
rwrist 8.21724
rhand -15.7982 10.1779
rfingers 7.12502
rthumb 10.3948 -19.5451
lclavicle 7.65321e-015 -9.54166e-015
lhumerus -34.6153 14.3934 89.2435
lradius 24.3889
lwrist -13.6356
lhand -10.2912 27.382
lfingers 7.12502
lthumb 15.7033 56.7648
rfemur -13.2222 4.48015 22.6162
rtibia 31.6849
rfoot -18.3572 -9.80483
rtoes 7.77452
lfemur -13.7542 -4.1463 -22.5392
ltibia 31.0389
lfoot -17.8937 4.73267
ltoes 2.27141
5
root 0.941564 17.4678 -31.3812 4.02497 -1.63206 1.55486
lowerback 1.63107 -3.50719 -5.69184
upperback -3.17194 -4.74964 4.93968
thorax -3.33592 -2.15102 8.58188
lowerneck -6.13853 -0.523395 -14.3131
upperneck 20.9371 0.148227 5.30464
head 7.44585 -0.58417 4.15834
rclavicle 5.21189e-014 2.06736e-014
rhumerus -35.1598 1.62639 -81.408
rradius 28.0966
rwrist 7.46089
rhand -15.7969 11.2779
rfingers 7.12502
rthumb 10.3961 -18.4451
lclavicle 5.21189e-014 2.06736e-014
lhumerus -34.6908 14.4318 89.3061
lradius 24.496
lwrist -13.658
lhand -10.1175 27.3239
lfingers 7.12502
lthumb 15.8705 56.6935
rfemur -13.2509 4.2322 22.3928
rtibia 31.79
rfoot -18.4715 -9.66351
rtoes 7.34368
lfemur -13.6925 -3.9973 -22.7525
ltibia 30.9545
lfoot -17.8373 4.55168
ltoes 2.4422
6
root 0.935863 17.4617 -31.3815 3.96453 -1.41503 1.68867
lowerback 1.76268 -3.61642 -5.91946
upperback -3.16298 -4.90933 4.99939
thorax -3.34887 -2.22417 8.79041
lowerneck -6.18013 -0.524481 -14.5123
upperneck 21.0737 0.186225 5.275
head 7.49723 -0.58909 4.18762
rclavicle 9.02979e-014 0
rhumerus -35.1139 1.63655 -81.2572
rradius 27.7706
rwrist 8.18646
rhand -16.2986 12.1517
rfingers 7.12502
rthumb 9.91206 -17.5949
lclavicle 9.02979e-014 0
lhumerus -34.6922 14.5577 89.3838
lradius 24.5411
lwrist -13.5683
lhand -10.1297 27.4347
lfingers 7.12502
lthumb 15.8588 56.8053
rfemur -13.2416 4.02519 22.275
rtibia 31.9049
rfoot -18.5737 -9.70844
rtoes 7.58225
lfemur -13.6114 -3.96687 -22.8637
ltibia 30.8849
lfoot -17.86 4.34874
ltoes 2.00924
7
root 0.931582 17.4573 -31.3807 3.84919 -1.29498 1.72866
lowerback 1.90187 -3.48414 -5.792
upperback -3.00437 -4.73721 4.81402
thorax -3.31827 -2.1491 8.5162
lowerneck -6.53547 -0.773992 -14.3715
upperneck 21.2947 -0.13367 5.33964
head 7.66635 -0.72994 4.16842
rclavicle 5.31625e-014 -1.59028e-014
rhumerus -34.9347 0.969753 -81.2287
rradius 27.6027
rwrist 8.55849
rhand -16.8038 12.1911
rfingers 7.12502
rthumb 9.42466 -17.5781
lclavicle 5.31625e-014 -1.59028e-014
lhumerus -34.3046 13.9046 89.4877
lradius 24.4247
lwrist -13.5393
lhand -10.3669 27.2472
lfingers 7.12502
lthumb 15.6303 56.6358
rfemur -13.1521 3.8826 22.2608
rtibia 32.0261
rfoot -18.752 -9.69458
rtoes 7.1639
lfemur -13.4917 -4.00784 -22.89
ltibia 30.8266
lfoot -17.8539 4.31948
ltoes 1.51398
8
root 0.92814 17.4552 -31.3795 3.8195 -1.2865 1.72989
lowerback 2.27194 -3.30955 -5.73805
upperback -3.10176 -4.51786 4.72767
thorax -3.68192 -2.02078 8.42263
lowerneck -6.83297 -0.89524 -14.2134
upperneck 21.564 -0.287492 5.39017
head 7.82368 -0.79289 4.15477
rclavicle 6.16108e-014 -3.65764e-014
rhumerus -35.1934 0.590955 -81.1304
rradius 27.6769
rwrist 8.46699
rhand -16.6022 12.9423
rfingers 7.12502
rthumb 9.6192 -16.8181
lclavicle 6.16108e-014 -3.65764e-014
lhumerus -34.4129 13.4185 89.5883
lradius 24.4474
lwrist -13.5633
lhand -10.6896 26.9498
lfingers 7.12502
lthumb 15.3195 56.3624
rfemur -13.1512 3.89656 22.2703
rtibia 32.117
rfoot -18.8578 -9.70911
rtoes 6.66013
lfemur -13.4761 -4.0732 -22.8822
ltibia 30.8065
lfoot -17.8497 4.359
ltoes 1.7238
9
root 0.924023 17.4561 -31.3827 3.81596 -1.1993 1.81028
lowerback 2.07046 -3.38456 -5.80837
upperback -2.99539 -4.61353 4.7234
thorax -3.43344 -2.08204 8.43872
lowerneck -6.63311 -0.701323 -14.3418
upperneck 21.1797 -0.0724778 5.60117
head 7.63405 -0.668751 4.25545
rclavicle 2.04251e-014 2.38542e-014
rhumerus -35.1153 0.950645 -81.2509
rradius 27.7528
rwrist 8.09544
rhand -16.5157 12.9576
rfingers 7.12502
rthumb 9.70259 -16.799
lclavicle 2.04251e-014 2.38542e-014
lhumerus -34.4583 13.5238 89.547
lradius 24.7079
lwrist -13.4998
lhand -10.6759 27.0006
lfingers 7.12502
lthumb 15.3327 56.4121
rfemur -13.1796 3.73524 22.1938
rtibia 32.193
rfoot -18.9442 -9.62438
rtoes 7.38304
lfemur -13.4378 -4.11739 -22.9466
ltibia 30.8138
lfoot -17.9537 4.30797
ltoes 1.91902
10
root 0.918961 17.4543 -31.3826 3.8077 -1.12014 1.89014
lowerback 2.11014 -3.52038 -6.03459
upperback -3.03882 -4.80393 4.85632
thorax -3.43861 -2.16867 8.72222
lowerneck -6.35564 -0.468504 -14.4539
upperneck 20.8726 0.238843 5.5187
head 7.45114 -0.52711 4.26121
rclavicle -1.10325e-014 3.65764e-014
rhumerus -35.1593 1.54751 -81.2645
rradius 27.7497
rwrist 8.01115
rhand -16.6234 12.6552
rfingers 7.12502
rthumb 9.59876 -17.1061
lclavicle -1.10325e-014 3.65764e-014
lhumerus -34.6767 13.8675 89.5676
lradius 24.9273
lwrist -13.4312
lhand -10.6756 27.1671
lfingers 7.12502
lthumb 15.333 56.5787
rfemur -13.1886 3.50252 22.1225
rtibia 32.2371
rfoot -18.9795 -9.53145
rtoes 7.85039
lfemur -13.4015 -3.99683 -22.9945
ltibia 30.8535
lfoot -18.0831 4.06461
ltoes 2.37425
11
root 0.911816 17.4489 -31.3799 3.77495 -1.04421 1.90758
lowerback 2.15515 -3.55775 -6.0317
upperback -3.02921 -4.85632 4.84331
thorax -3.44516 -2.19521 8.71057
lowerneck -6.19487 -0.440364 -14.3858
upperneck 20.7988 0.265453 5.40259
head 7.39662 -0.518168 4.20974
rclavicle -6.19463e-014 2.70347e-014
rhumerus -35.1294 1.56838 -81.2985
rradius 27.6669
rwrist 8.08621
rhand -16.2689 13.8061
rfingers 7.12502
rthumb 9.94073 -15.9392
lclavicle -6.19463e-014 2.70347e-014
lhumerus -34.7778 13.7888 89.5388
lradius 25.0377
lwrist -13.3526
lhand -10.7447 26.9335
lfingers 7.12502
lthumb 15.2664 56.3501
rfemur -13.1753 3.37648 22.1387
rtibia 32.2605
rfoot -18.9822 -9.5132
rtoes 7.81295
lfemur -13.3835 -3.88422 -22.9719
ltibia 30.9069
lfoot -18.1824 3.8931
ltoes 2.32941
